<?xml version="1.0" encoding="UTF-8" ?>
<!DOCTYPE svg PUBLIC "-//W3C//DTD SVG 1.1//EN" "http://www.w3.org/Graphics/SVG/1.1/DTD/svg11.dtd">
<svg width="1024pt" height="959pt" viewBox="0 0 1024 959" version="1.1" xmlns="http://www.w3.org/2000/svg">
<g id="#000000ff">
<path fill="#000000" opacity="1.00" d=" M 452.99 1.87 C 599.45 1.52 745.89 0.73 892.34 0.34 C 892.40 64.89 892.53 129.43 892.45 193.98 C 915.52 194.06 938.59 194.01 961.66 194.00 C 961.68 171.62 961.62 149.23 961.69 126.85 C 977.79 126.83 993.89 126.85 1010.00 126.85 C 1014.66 126.94 1019.36 126.53 1024.00 127.21 L 1024.00 318.70 C 1003.26 318.97 982.52 318.75 961.78 318.81 C 961.75 296.44 961.79 274.08 961.76 251.71 C 683.10 251.70 404.45 251.69 125.80 251.71 C 125.77 274.08 125.80 296.45 125.78 318.81 C 105.78 318.82 85.78 318.83 65.78 318.81 C 65.77 254.83 65.75 190.84 65.79 126.85 C 85.77 126.83 105.76 126.84 125.74 126.85 C 125.85 149.23 125.75 171.62 125.79 194.00 C 148.49 194.03 171.18 194.02 193.88 194.00 C 193.90 130.28 193.86 66.56 193.90 2.84 C 269.93 2.71 345.96 2.26 421.99 2.12 C 432.32 1.51 442.66 2.22 452.99 1.87 Z" />
<path fill="#000000" opacity="1.00" d=" M 193.67 318.83 C 235.00 318.81 276.33 318.82 317.66 318.82 C 317.16 327.70 318.88 336.87 323.51 344.53 C 329.95 355.36 341.45 361.88 353.00 365.99 C 370.69 372.11 389.44 374.25 408.00 375.92 C 435.94 378.36 464.01 379.01 491.97 381.23 C 500.00 381.63 507.98 382.95 516.04 382.80 C 535.60 382.70 555.16 382.91 574.72 382.70 C 598.12 380.59 621.58 379.28 645.04 378.13 C 670.12 376.56 695.40 375.40 720.00 369.91 C 734.10 366.59 748.69 361.64 759.01 351.00 C 767.27 342.55 770.60 330.41 770.13 318.82 C 812.16 318.83 854.18 318.81 896.21 318.83 C 896.24 379.22 896.22 439.62 896.22 500.01 C 896.28 503.11 895.88 506.29 896.65 509.35 C 937.70 637.02 978.86 764.65 1019.89 892.33 C 1021.14 909.67 1013.58 927.16 1001.56 939.54 C 990.25 951.30 974.35 957.91 958.18 959.00 L 133.15 959.00 C 118.27 958.63 103.38 953.74 91.97 944.03 C 79.04 933.37 70.53 917.60 68.72 900.94 C 68.48 898.00 67.93 894.95 68.78 892.07 C 110.11 764.97 151.60 637.92 192.86 510.81 C 150.03 510.78 107.20 510.80 64.38 510.80 C 64.27 552.13 64.37 593.47 64.32 634.81 C 42.88 634.75 21.44 634.98 0.00 634.69 L 0.00 447.36 C 1.29 447.03 2.61 446.85 3.93 446.81 C 67.18 446.85 130.42 446.83 193.66 446.82 C 193.67 404.16 193.64 361.49 193.67 318.83 M 255.35 508.86 C 254.99 531.18 254.69 553.51 254.32 575.84 C 275.66 575.86 297.00 575.83 318.33 575.85 C 318.35 596.19 318.34 616.52 318.34 636.86 C 297.00 636.91 275.66 636.77 254.32 636.93 C 254.37 659.23 254.33 681.54 254.34 703.85 C 276.33 703.86 298.33 703.86 320.32 703.85 C 320.35 682.51 320.30 661.17 320.35 639.82 C 341.04 639.81 361.74 639.81 382.43 639.82 C 382.48 661.16 382.44 682.50 382.45 703.84 C 404.55 703.87 426.65 703.85 448.74 703.85 C 448.76 682.51 448.72 661.17 448.76 639.83 C 469.46 639.79 490.16 639.84 510.86 639.80 C 511.32 661.14 510.86 682.51 511.11 703.85 C 533.31 703.85 555.52 703.86 577.73 703.85 C 576.94 698.28 577.27 692.65 577.22 687.05 C 577.23 671.31 577.18 655.56 577.24 639.82 C 597.76 639.81 618.28 639.82 638.81 639.82 C 638.88 661.15 638.82 682.48 638.84 703.81 C 661.29 703.91 683.75 703.83 706.21 703.85 C 706.24 682.50 706.17 661.16 706.24 639.82 C 726.60 639.81 746.96 639.81 767.32 639.82 C 767.36 661.16 767.32 682.51 767.34 703.85 C 789.66 703.86 811.99 703.86 834.32 703.85 C 834.33 681.52 834.33 659.20 834.32 636.87 C 812.98 636.84 791.65 636.88 770.32 636.85 C 770.29 616.55 770.38 596.25 770.27 575.95 C 791.62 575.70 812.97 575.92 834.32 575.84 C 834.33 553.51 834.33 531.18 834.32 508.86 C 811.70 508.85 789.08 508.83 766.46 508.86 C 766.44 530.18 766.46 551.49 766.45 572.80 C 746.40 572.81 726.37 572.82 706.33 572.80 C 706.32 551.48 706.34 530.17 706.32 508.86 C 683.70 508.84 661.09 508.85 638.48 508.85 C 638.41 530.17 638.48 551.49 638.44 572.81 C 618.40 572.80 598.36 572.82 578.33 572.80 C 578.32 551.48 578.34 530.17 578.32 508.86 C 555.70 508.85 533.08 508.83 510.46 508.86 C 510.44 530.18 510.46 551.49 510.44 572.81 C 490.40 572.81 470.37 572.82 450.33 572.80 C 450.32 551.49 450.34 530.17 450.32 508.85 C 427.70 508.84 405.08 508.85 382.47 508.85 C 382.42 530.17 382.47 551.49 382.44 572.81 C 362.40 572.80 342.37 572.82 322.33 572.80 C 322.32 551.49 322.34 530.17 322.32 508.85 C 300.00 508.84 277.67 508.84 255.35 508.86 M 255.12 766.76 C 254.83 788.08 255.21 809.39 254.96 830.71 C 447.86 830.83 640.76 830.74 833.66 830.76 C 833.65 809.42 833.68 788.09 833.64 766.75 C 640.80 766.76 447.96 766.75 255.12 766.76 Z" />
<path fill="#000000" opacity="1.00" d=" M 384.34 574.86 C 404.34 574.83 424.34 574.85 444.34 574.85 C 444.36 595.18 444.35 615.50 444.34 635.82 C 424.34 635.82 404.34 635.83 384.33 635.81 C 384.33 615.50 384.32 595.18 384.34 574.86 Z" />
<path fill="#000000" opacity="1.00" d=" M 512.34 574.86 C 532.34 574.83 552.34 574.84 572.34 574.85 C 572.35 595.18 572.35 615.50 572.34 635.82 C 552.34 635.82 532.33 635.83 512.33 635.81 C 512.33 615.50 512.32 595.18 512.34 574.86 Z" />
<path fill="#000000" opacity="1.00" d=" M 640.33 574.86 C 660.34 574.84 680.34 574.84 700.34 574.85 C 700.35 595.18 700.35 615.50 700.34 635.82 C 680.34 635.82 660.33 635.83 640.33 635.81 C 640.33 615.50 640.33 595.18 640.33 574.86 Z" />
</g>
</svg>
